<?xml version="1.0" standalone="no"?><!DOCTYPE svg PUBLIC "-//W3C//DTD SVG 1.1//EN" "http://www.w3.org/Graphics/SVG/1.1/DTD/svg11.dtd"><svg t="1641617923809" class="icon" viewBox="0 0 1024 1024" version="1.1" xmlns="http://www.w3.org/2000/svg" p-id="10956" xmlns:xlink="http://www.w3.org/1999/xlink" width="200" height="200"><defs><style type="text/css"></style></defs><path d="M520.3968 613.00736a27.11552 27.11552 0 0 0-27.11552 27.11552c0 11.8784 7.7824 21.66784 18.432 25.31328v60.37504h17.32608v-60.37504a26.86976 26.86976 0 0 0-8.64256-52.4288z" p-id="10957"></path><path d="M985.9072 301.50656V209.05984H365.52704V147.16928H84.04992v61.93152H38.0928v92.40576H0v575.32416h1024V301.50656h-38.0928z m-166.46144 237.60896h-38.21568v-22.20032h0.04096a74.5472 74.5472 0 0 0-149.01248 0h0.04096v22.20032h24.12544c9.13408 0 16.5888 7.41376 16.5888 16.54784v218.5216a16.5888 16.5888 0 0 1-16.5888 16.5888H384.32768a16.54784 16.54784 0 0 1-16.54784-16.5888v-218.5216c0-9.17504 7.41376-16.54784 16.54784-16.54784h209.75616v-22.20032a112.64 112.64 0 1 1 225.36192 0v22.20032z m109.19936-237.60896H95.35488V255.30368h833.29024v46.20288z" p-id="10958"></path></svg>