<?xml version="1.0" standalone="no"?><!DOCTYPE svg PUBLIC "-//W3C//DTD SVG 1.1//EN" "http://www.w3.org/Graphics/SVG/1.1/DTD/svg11.dtd"><svg t="1641617916128" class="icon" viewBox="0 0 1024 1024" version="1.1" xmlns="http://www.w3.org/2000/svg" p-id="2786" xmlns:xlink="http://www.w3.org/1999/xlink" width="200" height="200"><defs><style type="text/css"></style></defs><path d="M518.88128 613.86752a26.91072 26.91072 0 1 0-8.64256 52.55168v60.53888h17.36704V666.4192a26.86976 26.86976 0 0 0 18.47296-25.3952 27.19744 27.19744 0 0 0-27.19744-27.15648z" p-id="2787"></path><path d="M1023.5904 301.6704h-38.05184V209.3056H365.64992V147.456H84.3776v61.8496H38.46144v92.32384H0.4096V876.544H1023.54944V301.6704zM95.68256 255.50848h832.63488v46.16192H95.68256V255.50848z m559.59552 284.30336c9.17504 0 16.5888 7.45472 16.5888 16.5888v219.05408a16.5888 16.5888 0 0 1-16.5888 16.5888H382.52544a16.62976 16.62976 0 0 1-16.5888-16.5888v-219.05408c0-9.17504 7.45472-16.5888 16.5888-16.5888h23.38816v-22.24128a112.96768 112.96768 0 0 1 225.93536 0v22.24128h23.42912z" p-id="2788"></path><path d="M518.88128 442.85952a74.67008 74.67008 0 0 0-74.67008 74.67008h0.08192v22.24128h149.25824v-22.24128h0.04096a74.752 74.752 0 0 0-74.71104-74.67008z" p-id="2789"></path></svg>