<?xml version="1.0" standalone="no"?><!DOCTYPE svg PUBLIC "-//W3C//DTD SVG 1.1//EN" "http://www.w3.org/Graphics/SVG/1.1/DTD/svg11.dtd"><svg t="1641624108507" class="icon" viewBox="0 0 1024 1024" version="1.1" xmlns="http://www.w3.org/2000/svg" p-id="14787" xmlns:xlink="http://www.w3.org/1999/xlink" width="200" height="200"><defs><style type="text/css"></style></defs><path d="M334.482515 558.37625a158.31 158.31 0 1 0 223.880242-223.888056 158.31 158.31 0 1 0-223.880242 223.888056Z" p-id="14788"></path><path d="M512 22C241.38 22 22 241.38 22 512s219.38 490 490 490 490-219.38 490-490S782.62 22 512 22z m278.35 762.65l-5.7 5.7c-11.72 11.72-30.71 11.72-42.43 0L577.15 625.28c-86.6 63.37-209.17 55.97-287.36-22.22-86.37-86.37-86.37-226.9 0-313.27s226.9-86.37 313.27 0c78.19 78.19 85.59 200.76 22.22 287.36l165.07 165.07c11.72 11.72 11.72 30.71 0 42.43z" p-id="14789"></path></svg>